<mxfile host="app.diagrams.net" agent="Mozilla/5.0 (Windows NT 10.0; Win64; x64) AppleWebKit/537.36 (KHTML, like Gecko) Chrome/136.0.0.0 Safari/537.36" version="26.2.14">
  <diagram name="PÃ¡gina-1" id="1WDI7bkXroPuL8pPdMSs">
    <mxGraphModel dx="2328" dy="824" grid="1" gridSize="10" guides="1" tooltips="1" connect="1" arrows="1" fold="1" page="1" pageScale="1" pageWidth="827" pageHeight="1169" math="0" shadow="0">
      <root>
        <mxCell id="0" />
        <mxCell id="1" parent="0" />
        <mxCell id="vDayqFZo1VbvIVlrN7os-1" value="&lt;font style=&quot;vertical-align: inherit;&quot;&gt;&lt;font style=&quot;vertical-align: inherit;&quot;&gt;&lt;font style=&quot;vertical-align: inherit;&quot;&gt;&lt;font style=&quot;vertical-align: inherit;&quot;&gt;CarnetControlador&lt;/font&gt;&lt;/font&gt;&lt;/font&gt;&lt;/font&gt;" style="swimlane;fontStyle=1;align=center;verticalAlign=top;childLayout=stackLayout;horizontal=1;startSize=26;horizontalStack=0;resizeParent=1;resizeParentMax=0;resizeLast=0;collapsible=1;marginBottom=0;whiteSpace=wrap;html=1;" vertex="1" parent="1">
          <mxGeometry x="-110" y="80" width="300" height="382" as="geometry" />
        </mxCell>
        <mxCell id="vDayqFZo1VbvIVlrN7os-2" value="&lt;font style=&quot;vertical-align: inherit;&quot;&gt;&lt;font style=&quot;vertical-align: inherit;&quot;&gt;- vista: CCarnet&lt;/font&gt;&lt;/font&gt;" style="text;strokeColor=none;fillColor=none;align=left;verticalAlign=top;spacingLeft=4;spacingRight=4;overflow=hidden;rotatable=0;points=[[0,0.5],[1,0.5]];portConstraint=eastwest;whiteSpace=wrap;html=1;" vertex="1" parent="vDayqFZo1VbvIVlrN7os-1">
          <mxGeometry y="26" width="300" height="26" as="geometry" />
        </mxCell>
        <mxCell id="vDayqFZo1VbvIVlrN7os-44" value="- dao: CarnetDAO" style="text;strokeColor=none;fillColor=none;align=left;verticalAlign=top;spacingLeft=4;spacingRight=4;overflow=hidden;rotatable=0;points=[[0,0.5],[1,0.5]];portConstraint=eastwest;whiteSpace=wrap;html=1;" vertex="1" parent="vDayqFZo1VbvIVlrN7os-1">
          <mxGeometry y="52" width="300" height="26" as="geometry" />
        </mxCell>
        <mxCell id="vDayqFZo1VbvIVlrN7os-43" value="- tipo: String" style="text;strokeColor=none;fillColor=none;align=left;verticalAlign=top;spacingLeft=4;spacingRight=4;overflow=hidden;rotatable=0;points=[[0,0.5],[1,0.5]];portConstraint=eastwest;whiteSpace=wrap;html=1;" vertex="1" parent="vDayqFZo1VbvIVlrN7os-1">
          <mxGeometry y="78" width="300" height="26" as="geometry" />
        </mxCell>
        <mxCell id="vDayqFZo1VbvIVlrN7os-42" value="- imagenSeleccionada: byte[]" style="text;strokeColor=none;fillColor=none;align=left;verticalAlign=top;spacingLeft=4;spacingRight=4;overflow=hidden;rotatable=0;points=[[0,0.5],[1,0.5]];portConstraint=eastwest;whiteSpace=wrap;html=1;" vertex="1" parent="vDayqFZo1VbvIVlrN7os-1">
          <mxGeometry y="104" width="300" height="36" as="geometry" />
        </mxCell>
        <mxCell id="vDayqFZo1VbvIVlrN7os-3" value="" style="line;strokeWidth=1;fillColor=none;align=left;verticalAlign=middle;spacingTop=-1;spacingLeft=3;spacingRight=3;rotatable=0;labelPosition=right;points=[];portConstraint=eastwest;strokeColor=inherit;" vertex="1" parent="vDayqFZo1VbvIVlrN7os-1">
          <mxGeometry y="140" width="300" height="8" as="geometry" />
        </mxCell>
        <mxCell id="vDayqFZo1VbvIVlrN7os-4" value="+ CarnetControlador(vista: CCarnet, tipo: String)" style="text;strokeColor=none;fillColor=none;align=left;verticalAlign=top;spacingLeft=4;spacingRight=4;overflow=hidden;rotatable=0;points=[[0,0.5],[1,0.5]];portConstraint=eastwest;whiteSpace=wrap;html=1;" vertex="1" parent="vDayqFZo1VbvIVlrN7os-1">
          <mxGeometry y="148" width="300" height="26" as="geometry" />
        </mxCell>
        <mxCell id="vDayqFZo1VbvIVlrN7os-50" value="+ actionPerformed(e: ActionEvent): void" style="text;strokeColor=none;fillColor=none;align=left;verticalAlign=top;spacingLeft=4;spacingRight=4;overflow=hidden;rotatable=0;points=[[0,0.5],[1,0.5]];portConstraint=eastwest;whiteSpace=wrap;html=1;" vertex="1" parent="vDayqFZo1VbvIVlrN7os-1">
          <mxGeometry y="174" width="300" height="26" as="geometry" />
        </mxCell>
        <mxCell id="vDayqFZo1VbvIVlrN7os-49" value="- seleccionarImagen(): void" style="text;strokeColor=none;fillColor=none;align=left;verticalAlign=top;spacingLeft=4;spacingRight=4;overflow=hidden;rotatable=0;points=[[0,0.5],[1,0.5]];portConstraint=eastwest;whiteSpace=wrap;html=1;" vertex="1" parent="vDayqFZo1VbvIVlrN7os-1">
          <mxGeometry y="200" width="300" height="26" as="geometry" />
        </mxCell>
        <mxCell id="vDayqFZo1VbvIVlrN7os-48" value="- cargarDatosCarnet(): void" style="text;strokeColor=none;fillColor=none;align=left;verticalAlign=top;spacingLeft=4;spacingRight=4;overflow=hidden;rotatable=0;points=[[0,0.5],[1,0.5]];portConstraint=eastwest;whiteSpace=wrap;html=1;" vertex="1" parent="vDayqFZo1VbvIVlrN7os-1">
          <mxGeometry y="226" width="300" height="26" as="geometry" />
        </mxCell>
        <mxCell id="vDayqFZo1VbvIVlrN7os-47" value="- volver(): void" style="text;strokeColor=none;fillColor=none;align=left;verticalAlign=top;spacingLeft=4;spacingRight=4;overflow=hidden;rotatable=0;points=[[0,0.5],[1,0.5]];portConstraint=eastwest;whiteSpace=wrap;html=1;" vertex="1" parent="vDayqFZo1VbvIVlrN7os-1">
          <mxGeometry y="252" width="300" height="26" as="geometry" />
        </mxCell>
        <mxCell id="vDayqFZo1VbvIVlrN7os-46" value="- actualizarCarreras(): void" style="text;strokeColor=none;fillColor=none;align=left;verticalAlign=top;spacingLeft=4;spacingRight=4;overflow=hidden;rotatable=0;points=[[0,0.5],[1,0.5]];portConstraint=eastwest;whiteSpace=wrap;html=1;" vertex="1" parent="vDayqFZo1VbvIVlrN7os-1">
          <mxGeometry y="278" width="300" height="26" as="geometry" />
        </mxCell>
        <mxCell id="vDayqFZo1VbvIVlrN7os-45" value="- validarCampos(): boolean" style="text;strokeColor=none;fillColor=none;align=left;verticalAlign=top;spacingLeft=4;spacingRight=4;overflow=hidden;rotatable=0;points=[[0,0.5],[1,0.5]];portConstraint=eastwest;whiteSpace=wrap;html=1;" vertex="1" parent="vDayqFZo1VbvIVlrN7os-1">
          <mxGeometry y="304" width="300" height="26" as="geometry" />
        </mxCell>
        <mxCell id="vDayqFZo1VbvIVlrN7os-52" value="- crearCarnet(): void" style="text;strokeColor=none;fillColor=none;align=left;verticalAlign=top;spacingLeft=4;spacingRight=4;overflow=hidden;rotatable=0;points=[[0,0.5],[1,0.5]];portConstraint=eastwest;whiteSpace=wrap;html=1;" vertex="1" parent="vDayqFZo1VbvIVlrN7os-1">
          <mxGeometry y="330" width="300" height="26" as="geometry" />
        </mxCell>
        <mxCell id="vDayqFZo1VbvIVlrN7os-51" value="- actualizarCarnet(): void" style="text;strokeColor=none;fillColor=none;align=left;verticalAlign=top;spacingLeft=4;spacingRight=4;overflow=hidden;rotatable=0;points=[[0,0.5],[1,0.5]];portConstraint=eastwest;whiteSpace=wrap;html=1;" vertex="1" parent="vDayqFZo1VbvIVlrN7os-1">
          <mxGeometry y="356" width="300" height="26" as="geometry" />
        </mxCell>
        <mxCell id="vDayqFZo1VbvIVlrN7os-21" value="MenuControlador" style="swimlane;fontStyle=1;align=center;verticalAlign=top;childLayout=stackLayout;horizontal=1;startSize=26;horizontalStack=0;resizeParent=1;resizeParentMax=0;resizeLast=0;collapsible=1;marginBottom=0;whiteSpace=wrap;html=1;" vertex="1" parent="1">
          <mxGeometry x="370" y="30" width="230" height="450" as="geometry" />
        </mxCell>
        <mxCell id="vDayqFZo1VbvIVlrN7os-22" value="- vista: CMenu" style="text;strokeColor=none;fillColor=none;align=left;verticalAlign=top;spacingLeft=4;spacingRight=4;overflow=hidden;rotatable=0;points=[[0,0.5],[1,0.5]];portConstraint=eastwest;whiteSpace=wrap;html=1;" vertex="1" parent="vDayqFZo1VbvIVlrN7os-21">
          <mxGeometry y="26" width="230" height="26" as="geometry" />
        </mxCell>
        <mxCell id="vDayqFZo1VbvIVlrN7os-53" value="- dao: CarnetDAO" style="text;strokeColor=none;fillColor=none;align=left;verticalAlign=top;spacingLeft=4;spacingRight=4;overflow=hidden;rotatable=0;points=[[0,0.5],[1,0.5]];portConstraint=eastwest;whiteSpace=wrap;html=1;" vertex="1" parent="vDayqFZo1VbvIVlrN7os-21">
          <mxGeometry y="52" width="230" height="26" as="geometry" />
        </mxCell>
        <mxCell id="vDayqFZo1VbvIVlrN7os-23" value="" style="line;strokeWidth=1;fillColor=none;align=left;verticalAlign=middle;spacingTop=-1;spacingLeft=3;spacingRight=3;rotatable=0;labelPosition=right;points=[];portConstraint=eastwest;strokeColor=inherit;" vertex="1" parent="vDayqFZo1VbvIVlrN7os-21">
          <mxGeometry y="78" width="230" height="8" as="geometry" />
        </mxCell>
        <mxCell id="vDayqFZo1VbvIVlrN7os-24" value="+ MenuControlador(vista: CMenu)" style="text;strokeColor=none;fillColor=none;align=left;verticalAlign=top;spacingLeft=4;spacingRight=4;overflow=hidden;rotatable=0;points=[[0,0.5],[1,0.5]];portConstraint=eastwest;whiteSpace=wrap;html=1;" vertex="1" parent="vDayqFZo1VbvIVlrN7os-21">
          <mxGeometry y="86" width="230" height="26" as="geometry" />
        </mxCell>
        <mxCell id="vDayqFZo1VbvIVlrN7os-65" value="+ actionPerformed(e: ActionEvent): void" style="text;strokeColor=none;fillColor=none;align=left;verticalAlign=top;spacingLeft=4;spacingRight=4;overflow=hidden;rotatable=0;points=[[0,0.5],[1,0.5]];portConstraint=eastwest;whiteSpace=wrap;html=1;" vertex="1" parent="vDayqFZo1VbvIVlrN7os-21">
          <mxGeometry y="112" width="230" height="26" as="geometry" />
        </mxCell>
        <mxCell id="vDayqFZo1VbvIVlrN7os-64" value="+ mouseClicked(e: MouseEvent): void" style="text;strokeColor=none;fillColor=none;align=left;verticalAlign=top;spacingLeft=4;spacingRight=4;overflow=hidden;rotatable=0;points=[[0,0.5],[1,0.5]];portConstraint=eastwest;whiteSpace=wrap;html=1;" vertex="1" parent="vDayqFZo1VbvIVlrN7os-21">
          <mxGeometry y="138" width="230" height="26" as="geometry" />
        </mxCell>
        <mxCell id="vDayqFZo1VbvIVlrN7os-63" value="+ mousePressed(e: MouseEvent): void" style="text;strokeColor=none;fillColor=none;align=left;verticalAlign=top;spacingLeft=4;spacingRight=4;overflow=hidden;rotatable=0;points=[[0,0.5],[1,0.5]];portConstraint=eastwest;whiteSpace=wrap;html=1;" vertex="1" parent="vDayqFZo1VbvIVlrN7os-21">
          <mxGeometry y="164" width="230" height="26" as="geometry" />
        </mxCell>
        <mxCell id="vDayqFZo1VbvIVlrN7os-62" value="+ mouseReleased(e: MouseEvent): void" style="text;strokeColor=none;fillColor=none;align=left;verticalAlign=top;spacingLeft=4;spacingRight=4;overflow=hidden;rotatable=0;points=[[0,0.5],[1,0.5]];portConstraint=eastwest;whiteSpace=wrap;html=1;" vertex="1" parent="vDayqFZo1VbvIVlrN7os-21">
          <mxGeometry y="190" width="230" height="26" as="geometry" />
        </mxCell>
        <mxCell id="vDayqFZo1VbvIVlrN7os-61" value="+ keyPressed(e: KeyEvent): void" style="text;strokeColor=none;fillColor=none;align=left;verticalAlign=top;spacingLeft=4;spacingRight=4;overflow=hidden;rotatable=0;points=[[0,0.5],[1,0.5]];portConstraint=eastwest;whiteSpace=wrap;html=1;" vertex="1" parent="vDayqFZo1VbvIVlrN7os-21">
          <mxGeometry y="216" width="230" height="26" as="geometry" />
        </mxCell>
        <mxCell id="vDayqFZo1VbvIVlrN7os-60" value="+ keyReleased(e: KeyEvent): void" style="text;strokeColor=none;fillColor=none;align=left;verticalAlign=top;spacingLeft=4;spacingRight=4;overflow=hidden;rotatable=0;points=[[0,0.5],[1,0.5]];portConstraint=eastwest;whiteSpace=wrap;html=1;" vertex="1" parent="vDayqFZo1VbvIVlrN7os-21">
          <mxGeometry y="242" width="230" height="26" as="geometry" />
        </mxCell>
        <mxCell id="vDayqFZo1VbvIVlrN7os-59" value="+ keyTyped(e: KeyEvent): void" style="text;strokeColor=none;fillColor=none;align=left;verticalAlign=top;spacingLeft=4;spacingRight=4;overflow=hidden;rotatable=0;points=[[0,0.5],[1,0.5]];portConstraint=eastwest;whiteSpace=wrap;html=1;" vertex="1" parent="vDayqFZo1VbvIVlrN7os-21">
          <mxGeometry y="268" width="230" height="26" as="geometry" />
        </mxCell>
        <mxCell id="vDayqFZo1VbvIVlrN7os-58" value="- buscarCarnet(): void" style="text;strokeColor=none;fillColor=none;align=left;verticalAlign=top;spacingLeft=4;spacingRight=4;overflow=hidden;rotatable=0;points=[[0,0.5],[1,0.5]];portConstraint=eastwest;whiteSpace=wrap;html=1;" vertex="1" parent="vDayqFZo1VbvIVlrN7os-21">
          <mxGeometry y="294" width="230" height="26" as="geometry" />
        </mxCell>
        <mxCell id="vDayqFZo1VbvIVlrN7os-57" value="- actualizarTabla(lista: List&lt;CarnetDTO&gt;): void" style="text;strokeColor=none;fillColor=none;align=left;verticalAlign=top;spacingLeft=4;spacingRight=4;overflow=hidden;rotatable=0;points=[[0,0.5],[1,0.5]];portConstraint=eastwest;whiteSpace=wrap;html=1;" vertex="1" parent="vDayqFZo1VbvIVlrN7os-21">
          <mxGeometry y="320" width="230" height="26" as="geometry" />
        </mxCell>
        <mxCell id="vDayqFZo1VbvIVlrN7os-56" value="- crear(): void" style="text;strokeColor=none;fillColor=none;align=left;verticalAlign=top;spacingLeft=4;spacingRight=4;overflow=hidden;rotatable=0;points=[[0,0.5],[1,0.5]];portConstraint=eastwest;whiteSpace=wrap;html=1;" vertex="1" parent="vDayqFZo1VbvIVlrN7os-21">
          <mxGeometry y="346" width="230" height="26" as="geometry" />
        </mxCell>
        <mxCell id="vDayqFZo1VbvIVlrN7os-55" value="- actualizar(): void" style="text;strokeColor=none;fillColor=none;align=left;verticalAlign=top;spacingLeft=4;spacingRight=4;overflow=hidden;rotatable=0;points=[[0,0.5],[1,0.5]];portConstraint=eastwest;whiteSpace=wrap;html=1;" vertex="1" parent="vDayqFZo1VbvIVlrN7os-21">
          <mxGeometry y="372" width="230" height="26" as="geometry" />
        </mxCell>
        <mxCell id="vDayqFZo1VbvIVlrN7os-54" value="- eliminar(): void" style="text;strokeColor=none;fillColor=none;align=left;verticalAlign=top;spacingLeft=4;spacingRight=4;overflow=hidden;rotatable=0;points=[[0,0.5],[1,0.5]];portConstraint=eastwest;whiteSpace=wrap;html=1;" vertex="1" parent="vDayqFZo1VbvIVlrN7os-21">
          <mxGeometry y="398" width="230" height="26" as="geometry" />
        </mxCell>
        <mxCell id="vDayqFZo1VbvIVlrN7os-66" value="- salir(): void" style="text;strokeColor=none;fillColor=none;align=left;verticalAlign=top;spacingLeft=4;spacingRight=4;overflow=hidden;rotatable=0;points=[[0,0.5],[1,0.5]];portConstraint=eastwest;whiteSpace=wrap;html=1;" vertex="1" parent="vDayqFZo1VbvIVlrN7os-21">
          <mxGeometry y="424" width="230" height="26" as="geometry" />
        </mxCell>
        <mxCell id="vDayqFZo1VbvIVlrN7os-25" value="CEjecutar" style="swimlane;fontStyle=1;align=center;verticalAlign=top;childLayout=stackLayout;horizontal=1;startSize=26;horizontalStack=0;resizeParent=1;resizeParentMax=0;resizeLast=0;collapsible=1;marginBottom=0;whiteSpace=wrap;html=1;" vertex="1" parent="1">
          <mxGeometry x="-520" y="120" width="160" height="82" as="geometry" />
        </mxCell>
        <mxCell id="vDayqFZo1VbvIVlrN7os-67" style="text;strokeColor=none;fillColor=none;align=left;verticalAlign=top;spacingLeft=4;spacingRight=4;overflow=hidden;rotatable=0;points=[[0,0.5],[1,0.5]];portConstraint=eastwest;whiteSpace=wrap;html=1;" vertex="1" parent="vDayqFZo1VbvIVlrN7os-25">
          <mxGeometry y="26" width="160" height="22" as="geometry" />
        </mxCell>
        <mxCell id="vDayqFZo1VbvIVlrN7os-27" value="" style="line;strokeWidth=1;fillColor=none;align=left;verticalAlign=middle;spacingTop=-1;spacingLeft=3;spacingRight=3;rotatable=0;labelPosition=right;points=[];portConstraint=eastwest;strokeColor=inherit;" vertex="1" parent="vDayqFZo1VbvIVlrN7os-25">
          <mxGeometry y="48" width="160" height="8" as="geometry" />
        </mxCell>
        <mxCell id="vDayqFZo1VbvIVlrN7os-28" value="+ main(args: String[]): void" style="text;strokeColor=none;fillColor=none;align=left;verticalAlign=top;spacingLeft=4;spacingRight=4;overflow=hidden;rotatable=0;points=[[0,0.5],[1,0.5]];portConstraint=eastwest;whiteSpace=wrap;html=1;" vertex="1" parent="vDayqFZo1VbvIVlrN7os-25">
          <mxGeometry y="56" width="160" height="26" as="geometry" />
        </mxCell>
        <mxCell id="vDayqFZo1VbvIVlrN7os-29" value="CarnetDAO" style="swimlane;fontStyle=1;align=center;verticalAlign=top;childLayout=stackLayout;horizontal=1;startSize=26;horizontalStack=0;resizeParent=1;resizeParentMax=0;resizeLast=0;collapsible=1;marginBottom=0;whiteSpace=wrap;html=1;" vertex="1" parent="1">
          <mxGeometry x="-570" y="290" width="230" height="330" as="geometry" />
        </mxCell>
        <mxCell id="vDayqFZo1VbvIVlrN7os-30" value="- carnets: List&amp;lt;CarnetDTO&amp;gt; [static]" style="text;strokeColor=none;fillColor=none;align=left;verticalAlign=top;spacingLeft=4;spacingRight=4;overflow=hidden;rotatable=0;points=[[0,0.5],[1,0.5]];portConstraint=eastwest;whiteSpace=wrap;html=1;" vertex="1" parent="vDayqFZo1VbvIVlrN7os-29">
          <mxGeometry y="26" width="230" height="26" as="geometry" />
        </mxCell>
        <mxCell id="vDayqFZo1VbvIVlrN7os-68" value="- carnetSeleccionado: CarnetDTO [static]" style="text;strokeColor=none;fillColor=none;align=left;verticalAlign=top;spacingLeft=4;spacingRight=4;overflow=hidden;rotatable=0;points=[[0,0.5],[1,0.5]];portConstraint=eastwest;whiteSpace=wrap;html=1;" vertex="1" parent="vDayqFZo1VbvIVlrN7os-29">
          <mxGeometry y="52" width="230" height="26" as="geometry" />
        </mxCell>
        <mxCell id="vDayqFZo1VbvIVlrN7os-31" value="" style="line;strokeWidth=1;fillColor=none;align=left;verticalAlign=middle;spacingTop=-1;spacingLeft=3;spacingRight=3;rotatable=0;labelPosition=right;points=[];portConstraint=eastwest;strokeColor=inherit;" vertex="1" parent="vDayqFZo1VbvIVlrN7os-29">
          <mxGeometry y="78" width="230" height="8" as="geometry" />
        </mxCell>
        <mxCell id="vDayqFZo1VbvIVlrN7os-32" value="+ crearCarnet(carnet: CarnetDTO): void" style="text;strokeColor=none;fillColor=none;align=left;verticalAlign=top;spacingLeft=4;spacingRight=4;overflow=hidden;rotatable=0;points=[[0,0.5],[1,0.5]];portConstraint=eastwest;whiteSpace=wrap;html=1;" vertex="1" parent="vDayqFZo1VbvIVlrN7os-29">
          <mxGeometry y="86" width="230" height="26" as="geometry" />
        </mxCell>
        <mxCell id="vDayqFZo1VbvIVlrN7os-72" value="+ buscarCarnet(buscar: String): List&lt;CarnetDTO&gt;" style="text;strokeColor=none;fillColor=none;align=left;verticalAlign=top;spacingLeft=4;spacingRight=4;overflow=hidden;rotatable=0;points=[[0,0.5],[1,0.5]];portConstraint=eastwest;whiteSpace=wrap;html=1;" vertex="1" parent="vDayqFZo1VbvIVlrN7os-29">
          <mxGeometry y="112" width="230" height="26" as="geometry" />
        </mxCell>
        <mxCell id="vDayqFZo1VbvIVlrN7os-71" value="+ actualizarCarnet(carnetActualizado: CarnetDTO): void" style="text;strokeColor=none;fillColor=none;align=left;verticalAlign=top;spacingLeft=4;spacingRight=4;overflow=hidden;rotatable=0;points=[[0,0.5],[1,0.5]];portConstraint=eastwest;whiteSpace=wrap;html=1;" vertex="1" parent="vDayqFZo1VbvIVlrN7os-29">
          <mxGeometry y="138" width="230" height="32" as="geometry" />
        </mxCell>
        <mxCell id="vDayqFZo1VbvIVlrN7os-70" value="+ eliminarCarnet(dni: String): void" style="text;strokeColor=none;fillColor=none;align=left;verticalAlign=top;spacingLeft=4;spacingRight=4;overflow=hidden;rotatable=0;points=[[0,0.5],[1,0.5]];portConstraint=eastwest;whiteSpace=wrap;html=1;" vertex="1" parent="vDayqFZo1VbvIVlrN7os-29">
          <mxGeometry y="170" width="230" height="26" as="geometry" />
        </mxCell>
        <mxCell id="vDayqFZo1VbvIVlrN7os-69" value="+ listarCarnets(): List&lt;CarnetDTO&gt;" style="text;strokeColor=none;fillColor=none;align=left;verticalAlign=top;spacingLeft=4;spacingRight=4;overflow=hidden;rotatable=0;points=[[0,0.5],[1,0.5]];portConstraint=eastwest;whiteSpace=wrap;html=1;" vertex="1" parent="vDayqFZo1VbvIVlrN7os-29">
          <mxGeometry y="196" width="230" height="26" as="geometry" />
        </mxCell>
        <mxCell id="vDayqFZo1VbvIVlrN7os-74" value="+ obtenerCarnet(): CarnetDTO" style="text;strokeColor=none;fillColor=none;align=left;verticalAlign=top;spacingLeft=4;spacingRight=4;overflow=hidden;rotatable=0;points=[[0,0.5],[1,0.5]];portConstraint=eastwest;whiteSpace=wrap;html=1;" vertex="1" parent="vDayqFZo1VbvIVlrN7os-29">
          <mxGeometry y="222" width="230" height="26" as="geometry" />
        </mxCell>
        <mxCell id="vDayqFZo1VbvIVlrN7os-73" value="+ seleccionarCarnet(dni: String): void" style="text;strokeColor=none;fillColor=none;align=left;verticalAlign=top;spacingLeft=4;spacingRight=4;overflow=hidden;rotatable=0;points=[[0,0.5],[1,0.5]];portConstraint=eastwest;whiteSpace=wrap;html=1;" vertex="1" parent="vDayqFZo1VbvIVlrN7os-29">
          <mxGeometry y="248" width="230" height="26" as="geometry" />
        </mxCell>
        <mxCell id="vDayqFZo1VbvIVlrN7os-75" value="+ existeCarnetPorDniOCodigo(dni: String, codigo: String):||&amp;nbsp; &amp;nbsp;boolean" style="text;strokeColor=none;fillColor=none;align=left;verticalAlign=top;spacingLeft=4;spacingRight=4;overflow=hidden;rotatable=0;points=[[0,0.5],[1,0.5]];portConstraint=eastwest;whiteSpace=wrap;html=1;" vertex="1" parent="vDayqFZo1VbvIVlrN7os-29">
          <mxGeometry y="274" width="230" height="56" as="geometry" />
        </mxCell>
        <mxCell id="vDayqFZo1VbvIVlrN7os-33" value="ICarnetDAO&amp;lt;T&amp;gt;" style="swimlane;fontStyle=1;align=center;verticalAlign=top;childLayout=stackLayout;horizontal=1;startSize=26;horizontalStack=0;resizeParent=1;resizeParentMax=0;resizeLast=0;collapsible=1;marginBottom=0;whiteSpace=wrap;html=1;" vertex="1" parent="1">
          <mxGeometry x="-650" y="780" width="370" height="308" as="geometry" />
        </mxCell>
        <mxCell id="vDayqFZo1VbvIVlrN7os-86" style="text;strokeColor=none;fillColor=none;align=left;verticalAlign=top;spacingLeft=4;spacingRight=4;overflow=hidden;rotatable=0;points=[[0,0.5],[1,0.5]];portConstraint=eastwest;whiteSpace=wrap;html=1;" vertex="1" parent="vDayqFZo1VbvIVlrN7os-33">
          <mxGeometry y="26" width="370" height="44" as="geometry" />
        </mxCell>
        <mxCell id="vDayqFZo1VbvIVlrN7os-35" value="" style="line;strokeWidth=1;fillColor=none;align=left;verticalAlign=middle;spacingTop=-1;spacingLeft=3;spacingRight=3;rotatable=0;labelPosition=right;points=[];portConstraint=eastwest;strokeColor=inherit;" vertex="1" parent="vDayqFZo1VbvIVlrN7os-33">
          <mxGeometry y="70" width="370" height="8" as="geometry" />
        </mxCell>
        <mxCell id="vDayqFZo1VbvIVlrN7os-36" value="+ crearCarnet(carnet: T): void" style="text;strokeColor=none;fillColor=none;align=left;verticalAlign=top;spacingLeft=4;spacingRight=4;overflow=hidden;rotatable=0;points=[[0,0.5],[1,0.5]];portConstraint=eastwest;whiteSpace=wrap;html=1;" vertex="1" parent="vDayqFZo1VbvIVlrN7os-33">
          <mxGeometry y="78" width="370" height="30" as="geometry" />
        </mxCell>
        <mxCell id="vDayqFZo1VbvIVlrN7os-85" value="+ buscarCarnet(buscar: String): List&lt;T&gt;" style="text;strokeColor=none;fillColor=none;align=left;verticalAlign=top;spacingLeft=4;spacingRight=4;overflow=hidden;rotatable=0;points=[[0,0.5],[1,0.5]];portConstraint=eastwest;whiteSpace=wrap;html=1;" vertex="1" parent="vDayqFZo1VbvIVlrN7os-33">
          <mxGeometry y="108" width="370" height="26" as="geometry" />
        </mxCell>
        <mxCell id="vDayqFZo1VbvIVlrN7os-84" value="+ actualizarCarnet(carnet: T): void" style="text;strokeColor=none;fillColor=none;align=left;verticalAlign=top;spacingLeft=4;spacingRight=4;overflow=hidden;rotatable=0;points=[[0,0.5],[1,0.5]];portConstraint=eastwest;whiteSpace=wrap;html=1;" vertex="1" parent="vDayqFZo1VbvIVlrN7os-33">
          <mxGeometry y="134" width="370" height="26" as="geometry" />
        </mxCell>
        <mxCell id="vDayqFZo1VbvIVlrN7os-83" value="+ eliminarCarnet(dni: String): void" style="text;strokeColor=none;fillColor=none;align=left;verticalAlign=top;spacingLeft=4;spacingRight=4;overflow=hidden;rotatable=0;points=[[0,0.5],[1,0.5]];portConstraint=eastwest;whiteSpace=wrap;html=1;" vertex="1" parent="vDayqFZo1VbvIVlrN7os-33">
          <mxGeometry y="160" width="370" height="26" as="geometry" />
        </mxCell>
        <mxCell id="vDayqFZo1VbvIVlrN7os-82" value="+ listarCarnets(): List&lt;T&gt;" style="text;strokeColor=none;fillColor=none;align=left;verticalAlign=top;spacingLeft=4;spacingRight=4;overflow=hidden;rotatable=0;points=[[0,0.5],[1,0.5]];portConstraint=eastwest;whiteSpace=wrap;html=1;" vertex="1" parent="vDayqFZo1VbvIVlrN7os-33">
          <mxGeometry y="186" width="370" height="26" as="geometry" />
        </mxCell>
        <mxCell id="vDayqFZo1VbvIVlrN7os-81" value="+ obtenerCarnet(): T" style="text;strokeColor=none;fillColor=none;align=left;verticalAlign=top;spacingLeft=4;spacingRight=4;overflow=hidden;rotatable=0;points=[[0,0.5],[1,0.5]];portConstraint=eastwest;whiteSpace=wrap;html=1;" vertex="1" parent="vDayqFZo1VbvIVlrN7os-33">
          <mxGeometry y="212" width="370" height="26" as="geometry" />
        </mxCell>
        <mxCell id="vDayqFZo1VbvIVlrN7os-80" value="+ seleccionarCarnet(dni: String): void" style="text;strokeColor=none;fillColor=none;align=left;verticalAlign=top;spacingLeft=4;spacingRight=4;overflow=hidden;rotatable=0;points=[[0,0.5],[1,0.5]];portConstraint=eastwest;whiteSpace=wrap;html=1;" vertex="1" parent="vDayqFZo1VbvIVlrN7os-33">
          <mxGeometry y="238" width="370" height="26" as="geometry" />
        </mxCell>
        <mxCell id="vDayqFZo1VbvIVlrN7os-79" value="+ existeCarnetPorDniOCodigo(dni: String, codigo: String):Â  Â  Â |&#xa;|Â  Â boolean" style="text;strokeColor=none;fillColor=none;align=left;verticalAlign=top;spacingLeft=4;spacingRight=4;overflow=hidden;rotatable=0;points=[[0,0.5],[1,0.5]];portConstraint=eastwest;whiteSpace=wrap;html=1;" vertex="1" parent="vDayqFZo1VbvIVlrN7os-33">
          <mxGeometry y="264" width="370" height="44" as="geometry" />
        </mxCell>
        <mxCell id="vDayqFZo1VbvIVlrN7os-37" value="CarnetDTO" style="swimlane;fontStyle=1;align=center;verticalAlign=top;childLayout=stackLayout;horizontal=1;startSize=26;horizontalStack=0;resizeParent=1;resizeParentMax=0;resizeLast=0;collapsible=1;marginBottom=0;whiteSpace=wrap;html=1;" vertex="1" parent="1">
          <mxGeometry x="170" y="630" width="470" height="698" as="geometry" />
        </mxCell>
        <mxCell id="vDayqFZo1VbvIVlrN7os-38" value="- codigo: String" style="text;strokeColor=none;fillColor=none;align=left;verticalAlign=top;spacingLeft=4;spacingRight=4;overflow=hidden;rotatable=0;points=[[0,0.5],[1,0.5]];portConstraint=eastwest;whiteSpace=wrap;html=1;" vertex="1" parent="vDayqFZo1VbvIVlrN7os-37">
          <mxGeometry y="26" width="470" height="26" as="geometry" />
        </mxCell>
        <mxCell id="vDayqFZo1VbvIVlrN7os-92" value="- dni: String" style="text;strokeColor=none;fillColor=none;align=left;verticalAlign=top;spacingLeft=4;spacingRight=4;overflow=hidden;rotatable=0;points=[[0,0.5],[1,0.5]];portConstraint=eastwest;whiteSpace=wrap;html=1;" vertex="1" parent="vDayqFZo1VbvIVlrN7os-37">
          <mxGeometry y="52" width="470" height="26" as="geometry" />
        </mxCell>
        <mxCell id="vDayqFZo1VbvIVlrN7os-91" value="- apellidos: String" style="text;strokeColor=none;fillColor=none;align=left;verticalAlign=top;spacingLeft=4;spacingRight=4;overflow=hidden;rotatable=0;points=[[0,0.5],[1,0.5]];portConstraint=eastwest;whiteSpace=wrap;html=1;" vertex="1" parent="vDayqFZo1VbvIVlrN7os-37">
          <mxGeometry y="78" width="470" height="26" as="geometry" />
        </mxCell>
        <mxCell id="vDayqFZo1VbvIVlrN7os-90" value="- nombres: String" style="text;strokeColor=none;fillColor=none;align=left;verticalAlign=top;spacingLeft=4;spacingRight=4;overflow=hidden;rotatable=0;points=[[0,0.5],[1,0.5]];portConstraint=eastwest;whiteSpace=wrap;html=1;" vertex="1" parent="vDayqFZo1VbvIVlrN7os-37">
          <mxGeometry y="104" width="470" height="26" as="geometry" />
        </mxCell>
        <mxCell id="vDayqFZo1VbvIVlrN7os-89" value="- facultad: String" style="text;strokeColor=none;fillColor=none;align=left;verticalAlign=top;spacingLeft=4;spacingRight=4;overflow=hidden;rotatable=0;points=[[0,0.5],[1,0.5]];portConstraint=eastwest;whiteSpace=wrap;html=1;" vertex="1" parent="vDayqFZo1VbvIVlrN7os-37">
          <mxGeometry y="130" width="470" height="26" as="geometry" />
        </mxCell>
        <mxCell id="vDayqFZo1VbvIVlrN7os-88" value="- carrera: String" style="text;strokeColor=none;fillColor=none;align=left;verticalAlign=top;spacingLeft=4;spacingRight=4;overflow=hidden;rotatable=0;points=[[0,0.5],[1,0.5]];portConstraint=eastwest;whiteSpace=wrap;html=1;" vertex="1" parent="vDayqFZo1VbvIVlrN7os-37">
          <mxGeometry y="156" width="470" height="26" as="geometry" />
        </mxCell>
        <mxCell id="vDayqFZo1VbvIVlrN7os-87" value="- fechaExpiracion: Date" style="text;strokeColor=none;fillColor=none;align=left;verticalAlign=top;spacingLeft=4;spacingRight=4;overflow=hidden;rotatable=0;points=[[0,0.5],[1,0.5]];portConstraint=eastwest;whiteSpace=wrap;html=1;" vertex="1" parent="vDayqFZo1VbvIVlrN7os-37">
          <mxGeometry y="182" width="470" height="26" as="geometry" />
        </mxCell>
        <mxCell id="vDayqFZo1VbvIVlrN7os-93" value="- foto: byte[]" style="text;strokeColor=none;fillColor=none;align=left;verticalAlign=top;spacingLeft=4;spacingRight=4;overflow=hidden;rotatable=0;points=[[0,0.5],[1,0.5]];portConstraint=eastwest;whiteSpace=wrap;html=1;" vertex="1" parent="vDayqFZo1VbvIVlrN7os-37">
          <mxGeometry y="208" width="470" height="26" as="geometry" />
        </mxCell>
        <mxCell id="vDayqFZo1VbvIVlrN7os-39" value="" style="line;strokeWidth=1;fillColor=none;align=left;verticalAlign=middle;spacingTop=-1;spacingLeft=3;spacingRight=3;rotatable=0;labelPosition=right;points=[];portConstraint=eastwest;strokeColor=inherit;" vertex="1" parent="vDayqFZo1VbvIVlrN7os-37">
          <mxGeometry y="234" width="470" height="8" as="geometry" />
        </mxCell>
        <mxCell id="vDayqFZo1VbvIVlrN7os-40" value="&lt;div&gt;+ CarnetDTO(cod, dni, apellidos, nombres, fac, car, fecha,&lt;span style=&quot;background-color: transparent; color: light-dark(rgb(0, 0, 0), rgb(255, 255, 255));&quot;&gt;&amp;nbsp;foto: byte[])&lt;/span&gt;&lt;/div&gt;" style="text;strokeColor=none;fillColor=none;align=left;verticalAlign=top;spacingLeft=4;spacingRight=4;overflow=hidden;rotatable=0;points=[[0,0.5],[1,0.5]];portConstraint=eastwest;whiteSpace=wrap;html=1;" vertex="1" parent="vDayqFZo1VbvIVlrN7os-37">
          <mxGeometry y="242" width="470" height="38" as="geometry" />
        </mxCell>
        <mxCell id="vDayqFZo1VbvIVlrN7os-95" value="+ CarnetDTO(dni, apellidos, nombres, fac, car, fecha)" style="text;strokeColor=none;fillColor=none;align=left;verticalAlign=top;spacingLeft=4;spacingRight=4;overflow=hidden;rotatable=0;points=[[0,0.5],[1,0.5]];portConstraint=eastwest;whiteSpace=wrap;html=1;" vertex="1" parent="vDayqFZo1VbvIVlrN7os-37">
          <mxGeometry y="280" width="470" height="38" as="geometry" />
        </mxCell>
        <mxCell id="vDayqFZo1VbvIVlrN7os-96" value="+ getCodigo(): String" style="text;strokeColor=none;fillColor=none;align=left;verticalAlign=top;spacingLeft=4;spacingRight=4;overflow=hidden;rotatable=0;points=[[0,0.5],[1,0.5]];portConstraint=eastwest;whiteSpace=wrap;html=1;" vertex="1" parent="vDayqFZo1VbvIVlrN7os-37">
          <mxGeometry y="318" width="470" height="38" as="geometry" />
        </mxCell>
        <mxCell id="vDayqFZo1VbvIVlrN7os-94" value="+ getDni(): String" style="text;strokeColor=none;fillColor=none;align=left;verticalAlign=top;spacingLeft=4;spacingRight=4;overflow=hidden;rotatable=0;points=[[0,0.5],[1,0.5]];portConstraint=eastwest;whiteSpace=wrap;html=1;" vertex="1" parent="vDayqFZo1VbvIVlrN7os-37">
          <mxGeometry y="356" width="470" height="38" as="geometry" />
        </mxCell>
        <mxCell id="vDayqFZo1VbvIVlrN7os-101" value="+ getApellidos(): String" style="text;strokeColor=none;fillColor=none;align=left;verticalAlign=top;spacingLeft=4;spacingRight=4;overflow=hidden;rotatable=0;points=[[0,0.5],[1,0.5]];portConstraint=eastwest;whiteSpace=wrap;html=1;" vertex="1" parent="vDayqFZo1VbvIVlrN7os-37">
          <mxGeometry y="394" width="470" height="38" as="geometry" />
        </mxCell>
        <mxCell id="vDayqFZo1VbvIVlrN7os-100" value="+ getNombres(): String" style="text;strokeColor=none;fillColor=none;align=left;verticalAlign=top;spacingLeft=4;spacingRight=4;overflow=hidden;rotatable=0;points=[[0,0.5],[1,0.5]];portConstraint=eastwest;whiteSpace=wrap;html=1;" vertex="1" parent="vDayqFZo1VbvIVlrN7os-37">
          <mxGeometry y="432" width="470" height="38" as="geometry" />
        </mxCell>
        <mxCell id="vDayqFZo1VbvIVlrN7os-99" value="+ getFacultad(): String" style="text;strokeColor=none;fillColor=none;align=left;verticalAlign=top;spacingLeft=4;spacingRight=4;overflow=hidden;rotatable=0;points=[[0,0.5],[1,0.5]];portConstraint=eastwest;whiteSpace=wrap;html=1;" vertex="1" parent="vDayqFZo1VbvIVlrN7os-37">
          <mxGeometry y="470" width="470" height="38" as="geometry" />
        </mxCell>
        <mxCell id="vDayqFZo1VbvIVlrN7os-98" value="+ getCarrera(): String" style="text;strokeColor=none;fillColor=none;align=left;verticalAlign=top;spacingLeft=4;spacingRight=4;overflow=hidden;rotatable=0;points=[[0,0.5],[1,0.5]];portConstraint=eastwest;whiteSpace=wrap;html=1;" vertex="1" parent="vDayqFZo1VbvIVlrN7os-37">
          <mxGeometry y="508" width="470" height="38" as="geometry" />
        </mxCell>
        <mxCell id="vDayqFZo1VbvIVlrN7os-97" value="+ getFechaExpiracion(): Date" style="text;strokeColor=none;fillColor=none;align=left;verticalAlign=top;spacingLeft=4;spacingRight=4;overflow=hidden;rotatable=0;points=[[0,0.5],[1,0.5]];portConstraint=eastwest;whiteSpace=wrap;html=1;" vertex="1" parent="vDayqFZo1VbvIVlrN7os-37">
          <mxGeometry y="546" width="470" height="38" as="geometry" />
        </mxCell>
        <mxCell id="vDayqFZo1VbvIVlrN7os-104" value="+ getFoto(): byte[]" style="text;strokeColor=none;fillColor=none;align=left;verticalAlign=top;spacingLeft=4;spacingRight=4;overflow=hidden;rotatable=0;points=[[0,0.5],[1,0.5]];portConstraint=eastwest;whiteSpace=wrap;html=1;" vertex="1" parent="vDayqFZo1VbvIVlrN7os-37">
          <mxGeometry y="584" width="470" height="38" as="geometry" />
        </mxCell>
        <mxCell id="vDayqFZo1VbvIVlrN7os-103" value="+ setFoto(foto: byte[]): void" style="text;strokeColor=none;fillColor=none;align=left;verticalAlign=top;spacingLeft=4;spacingRight=4;overflow=hidden;rotatable=0;points=[[0,0.5],[1,0.5]];portConstraint=eastwest;whiteSpace=wrap;html=1;" vertex="1" parent="vDayqFZo1VbvIVlrN7os-37">
          <mxGeometry y="622" width="470" height="38" as="geometry" />
        </mxCell>
        <mxCell id="vDayqFZo1VbvIVlrN7os-102" value="+ actualizarCarnet(ape, nom, fac, car, fecha): void" style="text;strokeColor=none;fillColor=none;align=left;verticalAlign=top;spacingLeft=4;spacingRight=4;overflow=hidden;rotatable=0;points=[[0,0.5],[1,0.5]];portConstraint=eastwest;whiteSpace=wrap;html=1;" vertex="1" parent="vDayqFZo1VbvIVlrN7os-37">
          <mxGeometry y="660" width="470" height="38" as="geometry" />
        </mxCell>
        <mxCell id="vDayqFZo1VbvIVlrN7os-105" value="CCarnet" style="swimlane;fontStyle=1;align=center;verticalAlign=top;childLayout=stackLayout;horizontal=1;startSize=26;horizontalStack=0;resizeParent=1;resizeParentMax=0;resizeLast=0;collapsible=1;marginBottom=0;whiteSpace=wrap;html=1;" vertex="1" parent="1">
          <mxGeometry x="-637.5" y="1180" width="345" height="424" as="geometry" />
        </mxCell>
        <mxCell id="vDayqFZo1VbvIVlrN7os-106" value="- jPanel1: JPanel" style="text;strokeColor=none;fillColor=none;align=left;verticalAlign=top;spacingLeft=4;spacingRight=4;overflow=hidden;rotatable=0;points=[[0,0.5],[1,0.5]];portConstraint=eastwest;whiteSpace=wrap;html=1;" vertex="1" parent="vDayqFZo1VbvIVlrN7os-105">
          <mxGeometry y="26" width="345" height="26" as="geometry" />
        </mxCell>
        <mxCell id="vDayqFZo1VbvIVlrN7os-120" value="- lblDato1..lblDato7: JLabel" style="text;strokeColor=none;fillColor=none;align=left;verticalAlign=top;spacingLeft=4;spacingRight=4;overflow=hidden;rotatable=0;points=[[0,0.5],[1,0.5]];portConstraint=eastwest;whiteSpace=wrap;html=1;" vertex="1" parent="vDayqFZo1VbvIVlrN7os-105">
          <mxGeometry y="52" width="345" height="26" as="geometry" />
        </mxCell>
        <mxCell id="vDayqFZo1VbvIVlrN7os-119" value="- lblImage: JLabel" style="text;strokeColor=none;fillColor=none;align=left;verticalAlign=top;spacingLeft=4;spacingRight=4;overflow=hidden;rotatable=0;points=[[0,0.5],[1,0.5]];portConstraint=eastwest;whiteSpace=wrap;html=1;" vertex="1" parent="vDayqFZo1VbvIVlrN7os-105">
          <mxGeometry y="78" width="345" height="26" as="geometry" />
        </mxCell>
        <mxCell id="vDayqFZo1VbvIVlrN7os-118" value="- lblTitulo: JLabel" style="text;strokeColor=none;fillColor=none;align=left;verticalAlign=top;spacingLeft=4;spacingRight=4;overflow=hidden;rotatable=0;points=[[0,0.5],[1,0.5]];portConstraint=eastwest;whiteSpace=wrap;html=1;" vertex="1" parent="vDayqFZo1VbvIVlrN7os-105">
          <mxGeometry y="104" width="345" height="26" as="geometry" />
        </mxCell>
        <mxCell id="vDayqFZo1VbvIVlrN7os-117" value="- btnCrear: JButton" style="text;strokeColor=none;fillColor=none;align=left;verticalAlign=top;spacingLeft=4;spacingRight=4;overflow=hidden;rotatable=0;points=[[0,0.5],[1,0.5]];portConstraint=eastwest;whiteSpace=wrap;html=1;" vertex="1" parent="vDayqFZo1VbvIVlrN7os-105">
          <mxGeometry y="130" width="345" height="26" as="geometry" />
        </mxCell>
        <mxCell id="vDayqFZo1VbvIVlrN7os-116" value="- btnVolver: JButton" style="text;strokeColor=none;fillColor=none;align=left;verticalAlign=top;spacingLeft=4;spacingRight=4;overflow=hidden;rotatable=0;points=[[0,0.5],[1,0.5]];portConstraint=eastwest;whiteSpace=wrap;html=1;" vertex="1" parent="vDayqFZo1VbvIVlrN7os-105">
          <mxGeometry y="156" width="345" height="26" as="geometry" />
        </mxCell>
        <mxCell id="vDayqFZo1VbvIVlrN7os-115" value="- cmbCarrera: JComboBox&lt;String&gt;" style="text;strokeColor=none;fillColor=none;align=left;verticalAlign=top;spacingLeft=4;spacingRight=4;overflow=hidden;rotatable=0;points=[[0,0.5],[1,0.5]];portConstraint=eastwest;whiteSpace=wrap;html=1;" vertex="1" parent="vDayqFZo1VbvIVlrN7os-105">
          <mxGeometry y="182" width="345" height="26" as="geometry" />
        </mxCell>
        <mxCell id="vDayqFZo1VbvIVlrN7os-114" value="- cmbFacultad: JComboBox&lt;String&gt;" style="text;strokeColor=none;fillColor=none;align=left;verticalAlign=top;spacingLeft=4;spacingRight=4;overflow=hidden;rotatable=0;points=[[0,0.5],[1,0.5]];portConstraint=eastwest;whiteSpace=wrap;html=1;" vertex="1" parent="vDayqFZo1VbvIVlrN7os-105">
          <mxGeometry y="208" width="345" height="26" as="geometry" />
        </mxCell>
        <mxCell id="vDayqFZo1VbvIVlrN7os-113" value="- dcFecha: JDateChooser" style="text;strokeColor=none;fillColor=none;align=left;verticalAlign=top;spacingLeft=4;spacingRight=4;overflow=hidden;rotatable=0;points=[[0,0.5],[1,0.5]];portConstraint=eastwest;whiteSpace=wrap;html=1;" vertex="1" parent="vDayqFZo1VbvIVlrN7os-105">
          <mxGeometry y="234" width="345" height="26" as="geometry" />
        </mxCell>
        <mxCell id="vDayqFZo1VbvIVlrN7os-112" value="- txtApellido: JTextField" style="text;strokeColor=none;fillColor=none;align=left;verticalAlign=top;spacingLeft=4;spacingRight=4;overflow=hidden;rotatable=0;points=[[0,0.5],[1,0.5]];portConstraint=eastwest;whiteSpace=wrap;html=1;" vertex="1" parent="vDayqFZo1VbvIVlrN7os-105">
          <mxGeometry y="260" width="345" height="26" as="geometry" />
        </mxCell>
        <mxCell id="vDayqFZo1VbvIVlrN7os-111" value="- txtCodigo: JTextField" style="text;strokeColor=none;fillColor=none;align=left;verticalAlign=top;spacingLeft=4;spacingRight=4;overflow=hidden;rotatable=0;points=[[0,0.5],[1,0.5]];portConstraint=eastwest;whiteSpace=wrap;html=1;" vertex="1" parent="vDayqFZo1VbvIVlrN7os-105">
          <mxGeometry y="286" width="345" height="26" as="geometry" />
        </mxCell>
        <mxCell id="vDayqFZo1VbvIVlrN7os-110" value="- txtDni: JTextField" style="text;strokeColor=none;fillColor=none;align=left;verticalAlign=top;spacingLeft=4;spacingRight=4;overflow=hidden;rotatable=0;points=[[0,0.5],[1,0.5]];portConstraint=eastwest;whiteSpace=wrap;html=1;" vertex="1" parent="vDayqFZo1VbvIVlrN7os-105">
          <mxGeometry y="312" width="345" height="26" as="geometry" />
        </mxCell>
        <mxCell id="vDayqFZo1VbvIVlrN7os-109" value="- txtNombre: JTextField" style="text;strokeColor=none;fillColor=none;align=left;verticalAlign=top;spacingLeft=4;spacingRight=4;overflow=hidden;rotatable=0;points=[[0,0.5],[1,0.5]];portConstraint=eastwest;whiteSpace=wrap;html=1;" vertex="1" parent="vDayqFZo1VbvIVlrN7os-105">
          <mxGeometry y="338" width="345" height="26" as="geometry" />
        </mxCell>
        <mxCell id="vDayqFZo1VbvIVlrN7os-107" value="" style="line;strokeWidth=1;fillColor=none;align=left;verticalAlign=middle;spacingTop=-1;spacingLeft=3;spacingRight=3;rotatable=0;labelPosition=right;points=[];portConstraint=eastwest;strokeColor=inherit;" vertex="1" parent="vDayqFZo1VbvIVlrN7os-105">
          <mxGeometry y="364" width="345" height="8" as="geometry" />
        </mxCell>
        <mxCell id="vDayqFZo1VbvIVlrN7os-108" value="+ CCarnet(parent: Frame, modal: boolean, tipo: String)" style="text;strokeColor=none;fillColor=none;align=left;verticalAlign=top;spacingLeft=4;spacingRight=4;overflow=hidden;rotatable=0;points=[[0,0.5],[1,0.5]];portConstraint=eastwest;whiteSpace=wrap;html=1;" vertex="1" parent="vDayqFZo1VbvIVlrN7os-105">
          <mxGeometry y="372" width="345" height="26" as="geometry" />
        </mxCell>
        <mxCell id="vDayqFZo1VbvIVlrN7os-121" value="+ main(args: String[]): void" style="text;strokeColor=none;fillColor=none;align=left;verticalAlign=top;spacingLeft=4;spacingRight=4;overflow=hidden;rotatable=0;points=[[0,0.5],[1,0.5]];portConstraint=eastwest;whiteSpace=wrap;html=1;" vertex="1" parent="vDayqFZo1VbvIVlrN7os-105">
          <mxGeometry y="398" width="345" height="26" as="geometry" />
        </mxCell>
        <mxCell id="vDayqFZo1VbvIVlrN7os-122" value="CMenu" style="swimlane;fontStyle=1;align=center;verticalAlign=top;childLayout=stackLayout;horizontal=1;startSize=26;horizontalStack=0;resizeParent=1;resizeParentMax=0;resizeLast=0;collapsible=1;marginBottom=0;whiteSpace=wrap;html=1;" vertex="1" parent="1">
          <mxGeometry x="320" y="1420" width="160" height="346" as="geometry" />
        </mxCell>
        <mxCell id="vDayqFZo1VbvIVlrN7os-123" value="- jPanel1: JPanel" style="text;strokeColor=none;fillColor=none;align=left;verticalAlign=top;spacingLeft=4;spacingRight=4;overflow=hidden;rotatable=0;points=[[0,0.5],[1,0.5]];portConstraint=eastwest;whiteSpace=wrap;html=1;" vertex="1" parent="vDayqFZo1VbvIVlrN7os-122">
          <mxGeometry y="26" width="160" height="26" as="geometry" />
        </mxCell>
        <mxCell id="vDayqFZo1VbvIVlrN7os-131" value="- jScrollPanel1: JScrollPane" style="text;strokeColor=none;fillColor=none;align=left;verticalAlign=top;spacingLeft=4;spacingRight=4;overflow=hidden;rotatable=0;points=[[0,0.5],[1,0.5]];portConstraint=eastwest;whiteSpace=wrap;html=1;" vertex="1" parent="vDayqFZo1VbvIVlrN7os-122">
          <mxGeometry y="52" width="160" height="26" as="geometry" />
        </mxCell>
        <mxCell id="vDayqFZo1VbvIVlrN7os-130" value="- lblDato2: JLabel" style="text;strokeColor=none;fillColor=none;align=left;verticalAlign=top;spacingLeft=4;spacingRight=4;overflow=hidden;rotatable=0;points=[[0,0.5],[1,0.5]];portConstraint=eastwest;whiteSpace=wrap;html=1;" vertex="1" parent="vDayqFZo1VbvIVlrN7os-122">
          <mxGeometry y="78" width="160" height="26" as="geometry" />
        </mxCell>
        <mxCell id="vDayqFZo1VbvIVlrN7os-129" value="- lblTitulo: JLabel" style="text;strokeColor=none;fillColor=none;align=left;verticalAlign=top;spacingLeft=4;spacingRight=4;overflow=hidden;rotatable=0;points=[[0,0.5],[1,0.5]];portConstraint=eastwest;whiteSpace=wrap;html=1;" vertex="1" parent="vDayqFZo1VbvIVlrN7os-122">
          <mxGeometry y="104" width="160" height="26" as="geometry" />
        </mxCell>
        <mxCell id="vDayqFZo1VbvIVlrN7os-128" value="- tblDatos: JTable" style="text;strokeColor=none;fillColor=none;align=left;verticalAlign=top;spacingLeft=4;spacingRight=4;overflow=hidden;rotatable=0;points=[[0,0.5],[1,0.5]];portConstraint=eastwest;whiteSpace=wrap;html=1;" vertex="1" parent="vDayqFZo1VbvIVlrN7os-122">
          <mxGeometry y="130" width="160" height="26" as="geometry" />
        </mxCell>
        <mxCell id="vDayqFZo1VbvIVlrN7os-127" value="- txtBuscar: JTextField" style="text;strokeColor=none;fillColor=none;align=left;verticalAlign=top;spacingLeft=4;spacingRight=4;overflow=hidden;rotatable=0;points=[[0,0.5],[1,0.5]];portConstraint=eastwest;whiteSpace=wrap;html=1;" vertex="1" parent="vDayqFZo1VbvIVlrN7os-122">
          <mxGeometry y="156" width="160" height="26" as="geometry" />
        </mxCell>
        <mxCell id="vDayqFZo1VbvIVlrN7os-126" value="- btnActualizar: JButton" style="text;strokeColor=none;fillColor=none;align=left;verticalAlign=top;spacingLeft=4;spacingRight=4;overflow=hidden;rotatable=0;points=[[0,0.5],[1,0.5]];portConstraint=eastwest;whiteSpace=wrap;html=1;" vertex="1" parent="vDayqFZo1VbvIVlrN7os-122">
          <mxGeometry y="182" width="160" height="26" as="geometry" />
        </mxCell>
        <mxCell id="vDayqFZo1VbvIVlrN7os-133" value="- btnCrear: JButton" style="text;strokeColor=none;fillColor=none;align=left;verticalAlign=top;spacingLeft=4;spacingRight=4;overflow=hidden;rotatable=0;points=[[0,0.5],[1,0.5]];portConstraint=eastwest;whiteSpace=wrap;html=1;" vertex="1" parent="vDayqFZo1VbvIVlrN7os-122">
          <mxGeometry y="208" width="160" height="26" as="geometry" />
        </mxCell>
        <mxCell id="vDayqFZo1VbvIVlrN7os-132" value="- btnEliminar: JButton" style="text;strokeColor=none;fillColor=none;align=left;verticalAlign=top;spacingLeft=4;spacingRight=4;overflow=hidden;rotatable=0;points=[[0,0.5],[1,0.5]];portConstraint=eastwest;whiteSpace=wrap;html=1;" vertex="1" parent="vDayqFZo1VbvIVlrN7os-122">
          <mxGeometry y="234" width="160" height="26" as="geometry" />
        </mxCell>
        <mxCell id="vDayqFZo1VbvIVlrN7os-134" value="- btnSalir: JButton" style="text;strokeColor=none;fillColor=none;align=left;verticalAlign=top;spacingLeft=4;spacingRight=4;overflow=hidden;rotatable=0;points=[[0,0.5],[1,0.5]];portConstraint=eastwest;whiteSpace=wrap;html=1;" vertex="1" parent="vDayqFZo1VbvIVlrN7os-122">
          <mxGeometry y="260" width="160" height="26" as="geometry" />
        </mxCell>
        <mxCell id="vDayqFZo1VbvIVlrN7os-124" value="" style="line;strokeWidth=1;fillColor=none;align=left;verticalAlign=middle;spacingTop=-1;spacingLeft=3;spacingRight=3;rotatable=0;labelPosition=right;points=[];portConstraint=eastwest;strokeColor=inherit;" vertex="1" parent="vDayqFZo1VbvIVlrN7os-122">
          <mxGeometry y="286" width="160" height="8" as="geometry" />
        </mxCell>
        <mxCell id="vDayqFZo1VbvIVlrN7os-125" value="+ CMenu()" style="text;strokeColor=none;fillColor=none;align=left;verticalAlign=top;spacingLeft=4;spacingRight=4;overflow=hidden;rotatable=0;points=[[0,0.5],[1,0.5]];portConstraint=eastwest;whiteSpace=wrap;html=1;" vertex="1" parent="vDayqFZo1VbvIVlrN7os-122">
          <mxGeometry y="294" width="160" height="26" as="geometry" />
        </mxCell>
        <mxCell id="vDayqFZo1VbvIVlrN7os-135" value="+ main(args: String[]): void" style="text;strokeColor=none;fillColor=none;align=left;verticalAlign=top;spacingLeft=4;spacingRight=4;overflow=hidden;rotatable=0;points=[[0,0.5],[1,0.5]];portConstraint=eastwest;whiteSpace=wrap;html=1;" vertex="1" parent="vDayqFZo1VbvIVlrN7os-122">
          <mxGeometry y="320" width="160" height="26" as="geometry" />
        </mxCell>
        <mxCell id="vDayqFZo1VbvIVlrN7os-136" value="" style="endArrow=none;html=1;edgeStyle=orthogonalEdgeStyle;rounded=0;entryX=0.995;entryY=0.02;entryDx=0;entryDy=0;entryPerimeter=0;" edge="1" parent="1" target="vDayqFZo1VbvIVlrN7os-111">
          <mxGeometry relative="1" as="geometry">
            <mxPoint x="60" y="460" as="sourcePoint" />
            <mxPoint x="-20" y="760" as="targetPoint" />
            <Array as="points">
              <mxPoint x="60" y="1467" />
            </Array>
          </mxGeometry>
        </mxCell>
        <mxCell id="vDayqFZo1VbvIVlrN7os-137" value="parent" style="edgeLabel;resizable=0;html=1;align=left;verticalAlign=bottom;" connectable="0" vertex="1" parent="vDayqFZo1VbvIVlrN7os-136">
          <mxGeometry x="-1" relative="1" as="geometry" />
        </mxCell>
        <mxCell id="vDayqFZo1VbvIVlrN7os-138" value="child" style="edgeLabel;resizable=0;html=1;align=right;verticalAlign=bottom;" connectable="0" vertex="1" parent="vDayqFZo1VbvIVlrN7os-136">
          <mxGeometry x="1" relative="1" as="geometry" />
        </mxCell>
        <mxCell id="vDayqFZo1VbvIVlrN7os-142" value="" style="endArrow=none;html=1;edgeStyle=orthogonalEdgeStyle;rounded=0;exitX=1;exitY=0.5;exitDx=0;exitDy=0;entryX=0.473;entryY=1.174;entryDx=0;entryDy=0;entryPerimeter=0;" edge="1" parent="1" source="vDayqFZo1VbvIVlrN7os-70" target="vDayqFZo1VbvIVlrN7os-51">
          <mxGeometry relative="1" as="geometry">
            <mxPoint x="-110" y="590" as="sourcePoint" />
            <mxPoint x="50" y="590" as="targetPoint" />
            <Array as="points">
              <mxPoint x="-340" y="520" />
              <mxPoint x="32" y="520" />
            </Array>
          </mxGeometry>
        </mxCell>
        <mxCell id="vDayqFZo1VbvIVlrN7os-143" value="parent" style="edgeLabel;resizable=0;html=1;align=left;verticalAlign=bottom;" connectable="0" vertex="1" parent="vDayqFZo1VbvIVlrN7os-142">
          <mxGeometry x="-1" relative="1" as="geometry" />
        </mxCell>
        <mxCell id="vDayqFZo1VbvIVlrN7os-144" value="child" style="edgeLabel;resizable=0;html=1;align=right;verticalAlign=bottom;" connectable="0" vertex="1" parent="vDayqFZo1VbvIVlrN7os-142">
          <mxGeometry x="1" relative="1" as="geometry" />
        </mxCell>
        <mxCell id="vDayqFZo1VbvIVlrN7os-145" value="" style="endArrow=none;html=1;edgeStyle=orthogonalEdgeStyle;rounded=0;exitX=0.365;exitY=1.053;exitDx=0;exitDy=0;exitPerimeter=0;entryX=0.351;entryY=0.003;entryDx=0;entryDy=0;entryPerimeter=0;" edge="1" parent="1" source="vDayqFZo1VbvIVlrN7os-51" target="vDayqFZo1VbvIVlrN7os-37">
          <mxGeometry relative="1" as="geometry">
            <mxPoint x="-110" y="590" as="sourcePoint" />
            <mxPoint x="50" y="590" as="targetPoint" />
            <Array as="points">
              <mxPoint x="-1" y="490" />
              <mxPoint x="335" y="490" />
            </Array>
          </mxGeometry>
        </mxCell>
        <mxCell id="vDayqFZo1VbvIVlrN7os-146" value="parent" style="edgeLabel;resizable=0;html=1;align=left;verticalAlign=bottom;" connectable="0" vertex="1" parent="vDayqFZo1VbvIVlrN7os-145">
          <mxGeometry x="-1" relative="1" as="geometry" />
        </mxCell>
        <mxCell id="vDayqFZo1VbvIVlrN7os-147" value="child" style="edgeLabel;resizable=0;html=1;align=right;verticalAlign=bottom;" connectable="0" vertex="1" parent="vDayqFZo1VbvIVlrN7os-145">
          <mxGeometry x="1" relative="1" as="geometry" />
        </mxCell>
        <mxCell id="vDayqFZo1VbvIVlrN7os-148" value="" style="endArrow=none;html=1;edgeStyle=orthogonalEdgeStyle;rounded=0;entryX=-0.011;entryY=-0.045;entryDx=0;entryDy=0;entryPerimeter=0;exitX=0.622;exitY=0.968;exitDx=0;exitDy=0;exitPerimeter=0;" edge="1" parent="1" source="vDayqFZo1VbvIVlrN7os-66" target="vDayqFZo1VbvIVlrN7os-125">
          <mxGeometry relative="1" as="geometry">
            <mxPoint x="700" y="540" as="sourcePoint" />
            <mxPoint x="320" y="1650" as="targetPoint" />
            <Array as="points">
              <mxPoint x="513" y="540" />
              <mxPoint x="510" y="540" />
              <mxPoint x="510" y="541" />
              <mxPoint x="-70" y="541" />
              <mxPoint x="-70" y="1640" />
              <mxPoint x="318" y="1640" />
            </Array>
          </mxGeometry>
        </mxCell>
        <mxCell id="vDayqFZo1VbvIVlrN7os-149" value="parent" style="edgeLabel;resizable=0;html=1;align=left;verticalAlign=bottom;" connectable="0" vertex="1" parent="vDayqFZo1VbvIVlrN7os-148">
          <mxGeometry x="-1" relative="1" as="geometry" />
        </mxCell>
        <mxCell id="vDayqFZo1VbvIVlrN7os-150" value="child" style="edgeLabel;resizable=0;html=1;align=right;verticalAlign=bottom;" connectable="0" vertex="1" parent="vDayqFZo1VbvIVlrN7os-148">
          <mxGeometry x="1" relative="1" as="geometry" />
        </mxCell>
        <mxCell id="vDayqFZo1VbvIVlrN7os-151" value="" style="endArrow=none;html=1;edgeStyle=orthogonalEdgeStyle;rounded=0;exitX=0.334;exitY=1.049;exitDx=0;exitDy=0;exitPerimeter=0;entryX=0.533;entryY=0.006;entryDx=0;entryDy=0;entryPerimeter=0;" edge="1" parent="1" source="vDayqFZo1VbvIVlrN7os-66" target="vDayqFZo1VbvIVlrN7os-37">
          <mxGeometry relative="1" as="geometry">
            <mxPoint x="-110" y="650" as="sourcePoint" />
            <mxPoint x="420" y="620" as="targetPoint" />
            <Array as="points">
              <mxPoint x="440" y="481" />
              <mxPoint x="440" y="550" />
              <mxPoint x="421" y="550" />
            </Array>
          </mxGeometry>
        </mxCell>
        <mxCell id="vDayqFZo1VbvIVlrN7os-152" value="parent" style="edgeLabel;resizable=0;html=1;align=left;verticalAlign=bottom;" connectable="0" vertex="1" parent="vDayqFZo1VbvIVlrN7os-151">
          <mxGeometry x="-1" relative="1" as="geometry" />
        </mxCell>
        <mxCell id="vDayqFZo1VbvIVlrN7os-153" value="child" style="edgeLabel;resizable=0;html=1;align=right;verticalAlign=bottom;" connectable="0" vertex="1" parent="vDayqFZo1VbvIVlrN7os-151">
          <mxGeometry x="1" relative="1" as="geometry" />
        </mxCell>
        <mxCell id="vDayqFZo1VbvIVlrN7os-154" value="" style="endArrow=none;html=1;edgeStyle=orthogonalEdgeStyle;rounded=0;exitX=1.001;exitY=0.284;exitDx=0;exitDy=0;exitPerimeter=0;entryX=0.439;entryY=1.008;entryDx=0;entryDy=0;entryPerimeter=0;" edge="1" parent="1" source="vDayqFZo1VbvIVlrN7os-36" target="vDayqFZo1VbvIVlrN7os-66">
          <mxGeometry relative="1" as="geometry">
            <mxPoint x="-110" y="860" as="sourcePoint" />
            <mxPoint x="50" y="860" as="targetPoint" />
            <Array as="points">
              <mxPoint x="-210" y="867" />
              <mxPoint x="-210" y="590" />
              <mxPoint x="471" y="590" />
            </Array>
          </mxGeometry>
        </mxCell>
        <mxCell id="vDayqFZo1VbvIVlrN7os-155" value="parent" style="edgeLabel;resizable=0;html=1;align=left;verticalAlign=bottom;" connectable="0" vertex="1" parent="vDayqFZo1VbvIVlrN7os-154">
          <mxGeometry x="-1" relative="1" as="geometry" />
        </mxCell>
        <mxCell id="vDayqFZo1VbvIVlrN7os-156" value="child" style="edgeLabel;resizable=0;html=1;align=right;verticalAlign=bottom;" connectable="0" vertex="1" parent="vDayqFZo1VbvIVlrN7os-154">
          <mxGeometry x="1" relative="1" as="geometry" />
        </mxCell>
        <mxCell id="vDayqFZo1VbvIVlrN7os-157" value="" style="endArrow=none;html=1;edgeStyle=orthogonalEdgeStyle;rounded=0;exitX=1;exitY=0.5;exitDx=0;exitDy=0;entryX=0;entryY=0.5;entryDx=0;entryDy=0;" edge="1" parent="1" source="vDayqFZo1VbvIVlrN7os-73" target="vDayqFZo1VbvIVlrN7os-94">
          <mxGeometry relative="1" as="geometry">
            <mxPoint x="-110" y="1170" as="sourcePoint" />
            <mxPoint x="50" y="1170" as="targetPoint" />
          </mxGeometry>
        </mxCell>
        <mxCell id="vDayqFZo1VbvIVlrN7os-158" value="parent" style="edgeLabel;resizable=0;html=1;align=left;verticalAlign=bottom;" connectable="0" vertex="1" parent="vDayqFZo1VbvIVlrN7os-157">
          <mxGeometry x="-1" relative="1" as="geometry" />
        </mxCell>
        <mxCell id="vDayqFZo1VbvIVlrN7os-159" value="child" style="edgeLabel;resizable=0;html=1;align=right;verticalAlign=bottom;" connectable="0" vertex="1" parent="vDayqFZo1VbvIVlrN7os-157">
          <mxGeometry x="1" relative="1" as="geometry" />
        </mxCell>
        <mxCell id="vDayqFZo1VbvIVlrN7os-160" value="" style="endArrow=block;dashed=1;endFill=0;endSize=12;html=1;rounded=0;exitX=0.54;exitY=1.004;exitDx=0;exitDy=0;exitPerimeter=0;entryX=0.554;entryY=-0.006;entryDx=0;entryDy=0;entryPerimeter=0;" edge="1" parent="1" source="vDayqFZo1VbvIVlrN7os-75" target="vDayqFZo1VbvIVlrN7os-33">
          <mxGeometry width="160" relative="1" as="geometry">
            <mxPoint x="-130" y="850" as="sourcePoint" />
            <mxPoint x="-390" y="770" as="targetPoint" />
          </mxGeometry>
        </mxCell>
        <mxCell id="vDayqFZo1VbvIVlrN7os-161" value="" style="endArrow=none;html=1;edgeStyle=orthogonalEdgeStyle;rounded=0;exitX=1.004;exitY=-0.097;exitDx=0;exitDy=0;exitPerimeter=0;entryX=0.224;entryY=0.931;entryDx=0;entryDy=0;entryPerimeter=0;" edge="1" parent="1" source="vDayqFZo1VbvIVlrN7os-114" target="vDayqFZo1VbvIVlrN7os-51">
          <mxGeometry relative="1" as="geometry">
            <mxPoint x="-110" y="1380" as="sourcePoint" />
            <mxPoint y="660" as="targetPoint" />
            <Array as="points">
              <mxPoint x="-150" y="1385" />
              <mxPoint x="-150" y="490" />
              <mxPoint x="-43" y="490" />
            </Array>
          </mxGeometry>
        </mxCell>
        <mxCell id="vDayqFZo1VbvIVlrN7os-162" value="parent" style="edgeLabel;resizable=0;html=1;align=left;verticalAlign=bottom;" connectable="0" vertex="1" parent="vDayqFZo1VbvIVlrN7os-161">
          <mxGeometry x="-1" relative="1" as="geometry" />
        </mxCell>
        <mxCell id="vDayqFZo1VbvIVlrN7os-163" value="child" style="edgeLabel;resizable=0;html=1;align=right;verticalAlign=bottom;" connectable="0" vertex="1" parent="vDayqFZo1VbvIVlrN7os-161">
          <mxGeometry x="1" relative="1" as="geometry" />
        </mxCell>
        <mxCell id="vDayqFZo1VbvIVlrN7os-164" value="0" style="endArrow=none;html=1;edgeStyle=orthogonalEdgeStyle;rounded=0;entryX=0;entryY=0.5;entryDx=0;entryDy=0;" edge="1" parent="1">
          <mxGeometry relative="1" as="geometry">
            <mxPoint x="-109" y="640" as="sourcePoint" />
            <mxPoint x="321" y="1562.9999999999995" as="targetPoint" />
          </mxGeometry>
        </mxCell>
        <mxCell id="vDayqFZo1VbvIVlrN7os-165" value="parent" style="edgeLabel;resizable=0;html=1;align=left;verticalAlign=bottom;" connectable="0" vertex="1" parent="vDayqFZo1VbvIVlrN7os-164">
          <mxGeometry x="-1" relative="1" as="geometry" />
        </mxCell>
        <mxCell id="vDayqFZo1VbvIVlrN7os-166" value="child" style="edgeLabel;resizable=0;html=1;align=right;verticalAlign=bottom;" connectable="0" vertex="1" parent="vDayqFZo1VbvIVlrN7os-164">
          <mxGeometry x="1" relative="1" as="geometry" />
        </mxCell>
      </root>
    </mxGraphModel>
  </diagram>
</mxfile>
